<svg enable-background="new 0 0 432.6 340.9" viewBox="0 0 432.6 340.9" xmlns="http://www.w3.org/2000/svg" xmlns:xlink="http://www.w3.org/1999/xlink">
<path d="M 155 134 H 250 V 0 h -95 C 69 0 0 70 0 155 s 69 155 155 155 h 95 V 176 H 155 c -12 0 -21 -9 -21 -21 s 9 -21 21 -21 z M 233 251 l -42 42 h -36 c -3 0 -7 0 -10 0 l 88 -88 V 251 z m 0 42 h -18 l 18 -18 V 293 z m -109 -4 c -12 -3 -23 -7 -34 -13 l 84 -84 h 47 l -96 97 z m -49 -22 c -9 -6 -17 -14 -24 -22 l 72 -72 c 6 10 16 17 28 19 l -75 75 z M 17 155 c 0 -9 1 -18 3 -27 l 27 27 l -27 27 c -2 -9 -3 -18 -3 -27 z m 54 0 L 25 109 c 4 -11 9 -21 16 -31 l 77 77 l -77 77 c -6 -10 -12 -20 -16 -31 l 46 -46 z m 52 -19 L 51 65 c 7 -8 15 -16 24 -22 l 75 75 c -12 2 -22 9 -28 19 z M 155 17 h 36 L 233 60 v 46 l -89 -89 z m 78 0 v 18 L 215 17 H 233 z m -13 100 h -46 l -84 -84 c 11 -6 22 -10 34 -13 l 96 97 z" fill="white"></path>
</svg>