<?xml version="1.0" encoding="UTF-8"?><svg id="Layer_1" xmlns="http://www.w3.org/2000/svg" viewBox="0 0 200 200"><defs><style>.cls-1,.cls-2{fill:none;}.cls-2{stroke:#38c6a1;stroke-miterlimit:10;stroke-width:1.44px;}</style></defs><rect class="cls-1" x="0" y="0" width="200" height="200"/><path class="cls-2" d="M110,200c0-22.09,17.91-40,40-40s40,17.91,40,40-17.91,40-40,40-40-17.91-40-40Zm40-28.09c-15.51,0-28.09,12.57-28.09,28.09s12.57,28.09,28.09,28.09,28.09-12.57,28.09-28.09-12.57-28.09-28.09-28.09Z"/><path class="cls-2" d="M10,200c0-22.09,17.91-40,40-40s40,17.91,40,40-17.91,40-40,40-40-17.91-40-40Zm40-28.09c-15.51,0-28.09,12.57-28.09,28.09s12.57,28.09,28.09,28.09,28.09-12.57,28.09-28.09-12.57-28.09-28.09-28.09Z"/><path class="cls-2" d="M160,100c0-22.09,17.91-40,40-40s40,17.91,40,40-17.91,40-40,40-40-17.91-40-40Zm40-28.09c-15.51,0-28.09,12.57-28.09,28.09s12.57,28.09,28.09,28.09,28.09-12.57,28.09-28.09-12.57-28.09-28.09-28.09Z"/><path class="cls-2" d="M60,100c0-22.09,17.91-40,40-40s40,17.91,40,40-17.91,40-40,40-40-17.91-40-40Zm40-28.09c-15.51,0-28.09,12.57-28.09,28.09s12.57,28.09,28.09,28.09,28.09-12.57,28.09-28.09-12.57-28.09-28.09-28.09Z"/><path class="cls-2" d="M-40,100C-40,77.91-22.09,60,0,60s40,17.91,40,40S22.09,140,0,140s-40-17.91-40-40ZM0,71.91c-15.51,0-28.09,12.57-28.09,28.09S-15.51,128.09,0,128.09s28.09-12.57,28.09-28.09S15.51,71.91,0,71.91Z"/><path class="cls-2" d="M110,0c0-22.09,17.91-40,40-40S190-22.09,190,0s-17.91,40-40,40S110,22.09,110,0Zm40-28.09C134.49-28.09,121.91-15.51,121.91,0s12.57,28.09,28.09,28.09S178.09,15.51,178.09,0s-12.57-28.09-28.09-28.09Z"/><path class="cls-2" d="M10,0c0-22.09,17.91-40,40-40S90-22.09,90,0s-17.91,40-40,40S10,22.09,10,0ZM50-28.09C34.49-28.09,21.91-15.51,21.91,0s12.57,28.09,28.09,28.09S78.09,15.51,78.09,0s-12.57-28.09-28.09-28.09Z"/></svg>