<?xml version="1.0" encoding="UTF-8"?><svg id="Layer_1" xmlns="http://www.w3.org/2000/svg" viewBox="0 0 200 200"><defs><style>.cls-1{fill:none;}.cls-2{fill:#38c6a1;}</style></defs><rect class="cls-1" y="0" width="200" height="200"/><polygon class="cls-2" points="177.64 178.45 171.55 172.36 150 193.91 128.45 172.36 122.36 178.45 143.91 200 122.36 221.55 128.45 227.64 150 206.09 171.55 227.64 177.64 221.55 156.09 200 177.64 178.45"/><path class="cls-2" d="M21.9,200c0-15.38,12.47-27.85,27.85-27.85s27.85,12.47,27.85,27.85-12.47,27.85-27.85,27.85-27.85-12.47-27.85-27.85Zm27.85-19.55c-10.8,0-19.55,8.75-19.55,19.55s8.75,19.55,19.55,19.55,19.55-8.75,19.55-19.55-8.75-19.55-19.55-19.55Z"/><g><path class="cls-2" d="M121.9,100c0-15.38,12.47-27.85,27.85-27.85s27.85,12.47,27.85,27.85-12.47,27.85-27.85,27.85-27.85-12.47-27.85-27.85Zm27.85-19.55c-10.8,0-19.55,8.75-19.55,19.55s8.75,19.55,19.55,19.55,19.55-8.75,19.55-19.55-8.75-19.55-19.55-19.55Z"/><polygon class="cls-2" points="77.64 78.45 71.55 72.36 50 93.91 28.45 72.36 22.36 78.45 43.91 100 22.36 121.55 28.45 127.64 50 106.09 71.55 127.64 77.64 121.55 56.09 100 77.64 78.45"/></g><polygon class="cls-2" points="177.64 -21.55 171.55 -27.64 150 -6.09 128.45 -27.64 122.36 -21.55 143.91 0 122.36 21.55 128.45 27.64 150 6.09 171.55 27.64 177.64 21.55 156.09 0 177.64 -21.55"/><path class="cls-2" d="M21.9,0c0-15.38,12.47-27.85,27.85-27.85S77.59-15.38,77.59,0s-12.47,27.85-27.85,27.85S21.9,15.38,21.9,0Zm27.85-19.55C38.95-19.55,30.19-10.8,30.19,0s8.75,19.55,19.55,19.55S69.3,10.8,69.3,0s-8.75-19.55-19.55-19.55Z"/></svg>