<?xml version="1.0" encoding="UTF-8"?><svg id="Layer_1" xmlns="http://www.w3.org/2000/svg" viewBox="0 0 200 200"><defs><style>.cls-1,.cls-2{fill:none;}.cls-2{stroke:#38c6a1;stroke-miterlimit:10;stroke-width:1.5px;}</style></defs><rect class="cls-1" y="0" width="200" height="200"/><g><polygon class="cls-2" points="139.35 200 109.38 168.8 117.89 160 156.31 200 117.89 240 109.38 231.2 139.35 200"/><polygon class="cls-2" points="176.55 200 146.57 168.8 155.08 160 193.5 200 155.08 240 146.57 231.2 176.55 200"/></g><rect class="cls-2" x="12.26" y="179.35" width="78.36" height="13.02"/><g><g><polygon class="cls-2" points="39.35 100 9.38 68.8 17.89 60 56.31 100 17.89 140 9.38 131.2 39.35 100"/><polygon class="cls-2" points="76.55 100 46.57 68.8 55.08 60 93.5 100 55.08 140 46.57 131.2 76.55 100"/></g><g><rect class="cls-2" x="112.26" y="79.35" width="78.36" height="13.02"/><rect class="cls-2" x="112.26" y="107.63" width="78.36" height="13.02"/></g></g><g><polygon class="cls-2" points="139.35 0 109.38 -31.2 117.89 -40 156.31 0 117.89 40 109.38 31.2 139.35 0"/><polygon class="cls-2" points="176.55 0 146.57 -31.2 155.08 -40 193.5 0 155.08 40 146.57 31.2 176.55 0"/></g><rect class="cls-2" x="12.26" y="7.63" width="78.36" height="13.02"/></svg>