<?xml version="1.0" encoding="UTF-8"?><svg id="Layer_1" xmlns="http://www.w3.org/2000/svg" viewBox="0 0 200 200"><defs><style>.cls-1,.cls-2{fill:none;}.cls-2{stroke:#38c6a1;stroke-miterlimit:10;}</style></defs><rect class="cls-1" y="0" width="200" height="200"/><g><polygon class="cls-2" points="142.05 200 122.35 179.49 127.94 173.7 153.2 200 127.94 226.3 122.35 220.51 142.05 200"/><polygon class="cls-2" points="166.5 200 146.8 179.49 152.39 173.7 177.65 200 152.39 226.3 146.8 220.51 166.5 200"/></g><path class="cls-2" d="M21.9,200c0-15.38,12.47-27.85,27.85-27.85s27.85,12.47,27.85,27.85-12.47,27.85-27.85,27.85-27.85-12.47-27.85-27.85Zm27.85-19.55c-10.8,0-19.55,8.75-19.55,19.55s8.75,19.55,19.55,19.55,19.55-8.75,19.55-19.55-8.75-19.55-19.55-19.55Z"/><g><path class="cls-2" d="M121.9,100c0-15.38,12.47-27.85,27.85-27.85s27.85,12.47,27.85,27.85-12.47,27.85-27.85,27.85-27.85-12.47-27.85-27.85Zm27.85-19.55c-10.8,0-19.55,8.75-19.55,19.55s8.75,19.55,19.55,19.55,19.55-8.75,19.55-19.55-8.75-19.55-19.55-19.55Z"/><g><polygon class="cls-2" points="42.05 100 22.35 79.49 27.94 73.7 53.2 100 27.94 126.3 22.35 120.51 42.05 100"/><polygon class="cls-2" points="66.5 100 46.8 79.49 52.39 73.7 77.65 100 52.39 126.3 46.8 120.51 66.5 100"/></g></g><g><polygon class="cls-2" points="142.05 0 122.35 -20.51 127.94 -26.3 153.2 0 127.94 26.3 122.35 20.51 142.05 0"/><polygon class="cls-2" points="166.5 0 146.8 -20.51 152.39 -26.3 177.65 0 152.39 26.3 146.8 20.51 166.5 0"/></g><path class="cls-2" d="M21.9,0c0-15.38,12.47-27.85,27.85-27.85S77.59-15.38,77.59,0s-12.47,27.85-27.85,27.85S21.9,15.38,21.9,0Zm27.85-19.55C38.95-19.55,30.19-10.8,30.19,0s8.75,19.55,19.55,19.55S69.3,10.8,69.3,0s-8.75-19.55-19.55-19.55Z"/></svg>