<?xml version="1.0" encoding="UTF-8"?><svg id="Layer_1" xmlns="http://www.w3.org/2000/svg" viewBox="0 0 200 200"><defs><style>.cls-1{fill:none;}.cls-2{fill:#38c6a1;}</style></defs><rect class="cls-1" x="-2.9" y="0" width="200" height="200"/><g><polygon class="cls-2" points="112.9 200 140.43 228.65 132.61 236.73 97.33 200 132.61 163.27 140.43 171.35 112.9 200"/><polygon class="cls-2" points="181.98 200 154.45 171.35 162.27 163.27 197.55 200 162.27 236.73 154.45 228.65 181.98 200"/></g><path class="cls-2" d="M10.12,200c0-20.29,16.44-36.73,36.73-36.73s36.73,16.45,36.73,36.73-16.44,36.73-36.73,36.73-36.73-16.44-36.73-36.73Zm36.73-25.79c-14.24,0-25.79,11.55-25.79,25.79s11.55,25.79,25.79,25.79,25.79-11.55,25.79-25.79-11.55-25.79-25.79-25.79Z"/><g><path class="cls-2" d="M110.12,100c0-20.29,16.44-36.73,36.73-36.73s36.73,16.45,36.73,36.73-16.44,36.73-36.73,36.73-36.73-16.44-36.73-36.73Zm36.73-25.79c-14.24,0-25.79,11.55-25.79,25.79s11.55,25.79,25.79,25.79,25.79-11.55,25.79-25.79-11.55-25.79-25.79-25.79Z"/><g><polygon class="cls-2" points="12.9 100 40.43 128.65 32.61 136.73 -2.67 100 32.61 63.27 40.43 71.35 12.9 100"/><polygon class="cls-2" points="81.98 100 54.45 71.35 62.27 63.27 97.55 100 62.27 136.73 54.45 128.65 81.98 100"/></g></g><g><polygon class="cls-2" points="112.9 0 140.43 28.65 132.61 36.73 97.33 0 132.61 -36.73 140.43 -28.65 112.9 0"/><polygon class="cls-2" points="181.98 0 154.45 -28.65 162.27 -36.73 197.55 0 162.27 36.73 154.45 28.65 181.98 0"/></g><path class="cls-2" d="M10.12,0c0-20.29,16.44-36.73,36.73-36.73S83.58-20.29,83.58,0s-16.44,36.73-36.73,36.73S10.12,20.29,10.12,0ZM46.85-25.79C32.6-25.79,21.06-14.24,21.06,0s11.55,25.79,25.79,25.79S72.64,14.24,72.64,0s-11.55-25.79-25.79-25.79Z"/></svg>