<?xml version="1.0" encoding="UTF-8"?><svg id="Layer_1" xmlns="http://www.w3.org/2000/svg" viewBox="0 0 200 200"><defs><style>.cls-1,.cls-2{fill:none;}.cls-2{stroke:#38c6a1;stroke-miterlimit:10;stroke-width:1.45px;}</style></defs><rect class="cls-1" x="-50" y="-50" width="300" height="300"/><polygon class="cls-2" points="221.83 200 193.31 170.31 201.41 161.94 237.97 200 201.41 238.06 193.31 229.69 221.83 200"/><g><polygon class="cls-2" points="121.83 200 93.31 170.31 101.41 161.94 137.97 200 101.41 238.06 93.31 229.69 121.83 200"/><polygon class="cls-2" points="157.22 200 128.7 170.31 136.8 161.94 173.35 200 136.8 238.06 128.7 229.69 157.22 200"/></g><g><polygon class="cls-2" points="21.83 200 -6.69 170.31 1.41 161.94 37.97 200 1.41 238.06 -6.69 229.69 21.83 200"/><polygon class="cls-2" points="57.22 200 28.7 170.31 36.8 161.94 73.35 200 36.8 238.06 28.7 229.69 57.22 200"/></g><g><polygon class="cls-2" points="188.5 100 159.98 70.31 168.08 61.94 204.63 100 168.08 138.06 159.98 129.69 188.5 100"/><polygon class="cls-2" points="223.88 100 195.37 70.31 203.46 61.94 240.02 100 203.46 138.06 195.37 129.69 223.88 100"/></g><g><polygon class="cls-2" points="88.5 100 59.98 70.31 68.08 61.94 104.63 100 68.08 138.06 59.98 129.69 88.5 100"/><polygon class="cls-2" points="123.88 100 95.37 70.31 103.46 61.94 140.02 100 103.46 138.06 95.37 129.69 123.88 100"/></g><g><polygon class="cls-2" points="-11.5 100 -40.02 70.31 -31.92 61.94 4.63 100 -31.92 138.06 -40.02 129.69 -11.5 100"/><polygon class="cls-2" points="23.88 100 -4.63 70.31 3.46 61.94 40.02 100 3.46 138.06 -4.63 129.69 23.88 100"/></g><g><polygon class="cls-2" points="155.17 0 126.65 -29.69 134.74 -38.06 171.3 0 134.74 38.06 126.65 29.69 155.17 0"/><polygon class="cls-2" points="190.55 0 162.03 -29.69 170.13 -38.06 206.69 0 170.13 38.06 162.03 29.69 190.55 0"/></g><g><polygon class="cls-2" points="55.17 0 26.65 -29.69 34.74 -38.06 71.3 0 34.74 38.06 26.65 29.69 55.17 0"/><polygon class="cls-2" points="90.55 0 62.03 -29.69 70.13 -38.06 106.69 0 70.13 38.06 62.03 29.69 90.55 0"/></g><polygon class="cls-2" points="-9.45 0 -37.97 -29.69 -29.87 -38.06 6.69 0 -29.87 38.06 -37.97 29.69 -9.45 0"/></svg>