<?xml version="1.0" encoding="UTF-8"?><svg id="Layer_1" xmlns="http://www.w3.org/2000/svg" viewBox="0 0 200 200"><defs><style>.cls-1{fill:none;}.cls-2{fill:#38c6a1;}</style></defs><rect class="cls-1" x="14.09" y="0" width="200" height="200"/><g><path class="cls-2" d="M186.27,200c0-10.58-8.48-19.15-18.94-19.15v-8.65c15.19,0,27.5,12.45,27.5,27.8s-12.31,27.8-27.5,27.8v-8.65c10.46,0,18.94-8.57,18.94-19.15Z"/><polygon class="cls-2" points="154.62 200 133.34 178.44 139.38 172.36 166.66 200 139.38 227.64 133.34 221.56 154.62 200"/></g><g><path class="cls-2" d="M86.27,200c0-10.58-8.48-19.15-18.94-19.15v-8.65c15.19,0,27.5,12.45,27.5,27.8s-12.31,27.8-27.5,27.8v-8.65c10.46,0,18.94-8.57,18.94-19.15Z"/><polygon class="cls-2" points="54.62 200 33.34 178.44 39.38 172.36 66.66 200 39.38 227.64 33.34 221.56 54.62 200"/></g><polygon class="cls-2" points="204.62 100 183.34 78.44 189.38 72.36 216.66 100 189.38 127.64 183.34 121.56 204.62 100"/><g><path class="cls-2" d="M136.27,100c0-10.58-8.48-19.15-18.94-19.15v-8.65c15.19,0,27.5,12.45,27.5,27.8s-12.31,27.8-27.5,27.8v-8.65c10.46,0,18.94-8.57,18.94-19.15Z"/><polygon class="cls-2" points="104.62 100 83.34 78.44 89.38 72.36 116.66 100 89.38 127.64 83.34 121.56 104.62 100"/></g><g><path class="cls-2" d="M36.27,100c0-10.58-8.48-19.15-18.94-19.15v-8.65c15.19,0,27.5,12.45,27.5,27.8s-12.31,27.8-27.5,27.8v-8.65c10.46,0,18.94-8.57,18.94-19.15Z"/><polygon class="cls-2" points="4.62 100 -16.66 78.44 -10.62 72.36 16.66 100 -10.62 127.64 -16.66 121.56 4.62 100"/></g><g><path class="cls-2" d="M186.27,0c0-10.58-8.48-19.15-18.94-19.15v-8.65C182.52-27.8,194.83-15.35,194.83,0s-12.31,27.8-27.5,27.8v-8.65C177.79,19.15,186.27,10.58,186.27,0Z"/><polygon class="cls-2" points="154.62 0 133.34 -21.56 139.38 -27.64 166.66 0 139.38 27.64 133.34 21.56 154.62 0"/></g><g><path class="cls-2" d="M86.27,0c0-10.58-8.48-19.15-18.94-19.15v-8.65C82.52-27.8,94.83-15.35,94.83,0s-12.31,27.8-27.5,27.8v-8.65C77.79,19.15,86.27,10.58,86.27,0Z"/><polygon class="cls-2" points="54.62 0 33.34 -21.56 39.38 -27.64 66.66 0 39.38 27.64 33.34 21.56 54.62 0"/></g></svg>