<?xml version="1.0" encoding="UTF-8"?><svg id="Layer_1" xmlns="http://www.w3.org/2000/svg" viewBox="0 0 200 200"><defs><style>.cls-1,.cls-2{fill:none;}.cls-2{stroke:#38c6a1;stroke-miterlimit:10;stroke-width:1.45px;}</style></defs><rect class="cls-1" y="1.45" width="200" height="200"/><g><polygon class="cls-2" points="149.74 204.81 120.06 233.33 111.69 225.23 149.74 188.67 187.8 225.23 179.43 233.33 149.74 204.81"/><polygon class="cls-2" points="149.74 169.42 120.06 197.94 111.69 189.84 149.74 153.29 187.8 189.84 179.43 197.94 149.74 169.42"/></g><g><g><polygon class="cls-2" points="50 139.95 79.69 111.43 88.06 119.53 50 156.08 11.94 119.53 20.31 111.43 50 139.95"/><polygon class="cls-2" points="50 175.34 79.69 146.82 88.06 154.91 50 191.47 11.94 154.91 20.31 146.82 50 175.34"/></g><g><polygon class="cls-2" points="149.74 104.81 120.06 133.33 111.69 125.23 149.74 88.67 187.8 125.23 179.43 133.33 149.74 104.81"/><polygon class="cls-2" points="149.74 69.42 120.06 97.94 111.69 89.84 149.74 53.29 187.8 89.84 179.43 97.94 149.74 69.42"/></g></g><g><g><polygon class="cls-2" points="50 39.95 79.69 11.43 88.06 19.53 50 56.08 11.94 19.53 20.31 11.43 50 39.95"/><polygon class="cls-2" points="50 75.34 79.69 46.82 88.06 54.91 50 91.47 11.94 54.91 20.31 46.82 50 75.34"/></g><polygon class="cls-2" points="149.74 4.81 120.06 33.33 111.69 25.23 149.74 -11.33 187.8 25.23 179.43 33.33 149.74 4.81"/></g></svg>