<?xml version="1.0" encoding="UTF-8"?><svg id="Layer_1" xmlns="http://www.w3.org/2000/svg" viewBox="0 0 200 200"><defs><style>.cls-1,.cls-2,.cls-3{fill:none;}.cls-2{stroke-width:1.41px;}.cls-2,.cls-3{stroke:#38c6a1;stroke-miterlimit:10;}.cls-3{stroke-width:1.42px;}</style></defs><rect class="cls-1" y="0" width="200" height="200"/><polygon class="cls-3" points="189.21 169.42 180.58 160.79 150 191.36 119.42 160.79 110.78 169.42 141.36 200 110.78 230.58 119.42 239.21 150 208.64 180.58 239.21 189.21 230.58 158.64 200 189.21 169.42"/><path class="cls-2" d="M10.53,200c0-21.66,17.56-39.22,39.21-39.22s39.21,17.56,39.21,39.22-17.56,39.21-39.21,39.21-39.21-17.56-39.21-39.21Zm39.21-27.53c-15.21,0-27.53,12.33-27.53,27.53s12.33,27.53,27.53,27.53,27.53-12.33,27.53-27.53-12.33-27.53-27.53-27.53Z"/><g><path class="cls-2" d="M110.53,100c0-21.66,17.56-39.22,39.21-39.22s39.21,17.56,39.21,39.22-17.56,39.21-39.21,39.21-39.21-17.56-39.21-39.21Zm39.21-27.53c-15.21,0-27.53,12.33-27.53,27.53s12.33,27.53,27.53,27.53,27.53-12.33,27.53-27.53-12.33-27.53-27.53-27.53Z"/><polygon class="cls-3" points="89.21 69.42 80.58 60.79 50 91.36 19.42 60.79 10.78 69.42 41.36 100 10.78 130.58 19.42 139.21 50 108.64 80.58 139.21 89.21 130.58 58.64 100 89.21 69.42"/></g><polygon class="cls-3" points="189.21 -30.58 180.58 -39.21 150 -8.64 119.42 -39.21 110.78 -30.58 141.36 0 110.78 30.58 119.42 39.21 150 8.64 180.58 39.21 189.21 30.58 158.64 0 189.21 -30.58"/><path class="cls-2" d="M10.53,0c0-21.66,17.56-39.22,39.21-39.22S88.96-21.66,88.96,0s-17.56,39.21-39.21,39.21S10.53,21.66,10.53,0ZM49.74-27.53C34.54-27.53,22.21-15.21,22.21,0s12.33,27.53,27.53,27.53S77.28,15.21,77.28,0s-12.33-27.53-27.53-27.53Z"/></svg>