<?xml version="1.0" encoding="UTF-8"?><svg id="Layer_1" xmlns="http://www.w3.org/2000/svg" viewBox="0 0 200 200"><defs><style>.cls-1{fill:none;}.cls-2{fill:#38c6a1;}</style></defs><rect class="cls-1" x="0" y="0" width="200" height="200"/><path class="cls-2" d="M122.15,200c0-15.38,12.47-27.85,27.85-27.85s27.85,12.47,27.85,27.85-12.47,27.85-27.85,27.85-27.85-12.47-27.85-27.85Zm27.85-19.55c-10.8,0-19.55,8.75-19.55,19.55s8.75,19.55,19.55,19.55,19.55-8.75,19.55-19.55-8.75-19.55-19.55-19.55Z"/><path class="cls-2" d="M22.15,200c0-15.38,12.47-27.85,27.85-27.85s27.85,12.47,27.85,27.85-12.47,27.85-27.85,27.85-27.85-12.47-27.85-27.85Zm27.85-19.55c-10.8,0-19.55,8.75-19.55,19.55s8.75,19.55,19.55,19.55,19.55-8.75,19.55-19.55-8.75-19.55-19.55-19.55Z"/><path class="cls-2" d="M172.15,100c0-15.38,12.47-27.85,27.85-27.85s27.85,12.47,27.85,27.85-12.47,27.85-27.85,27.85-27.85-12.47-27.85-27.85Zm27.85-19.55c-10.8,0-19.55,8.75-19.55,19.55s8.75,19.55,19.55,19.55,19.55-8.75,19.55-19.55-8.75-19.55-19.55-19.55Z"/><path class="cls-2" d="M72.15,100c0-15.38,12.47-27.85,27.85-27.85s27.85,12.47,27.85,27.85-12.47,27.85-27.85,27.85-27.85-12.47-27.85-27.85Zm27.85-19.55c-10.8,0-19.55,8.75-19.55,19.55s8.75,19.55,19.55,19.55,19.55-8.75,19.55-19.55-8.75-19.55-19.55-19.55Z"/><path class="cls-2" d="M-27.85,100c0-15.38,12.47-27.85,27.85-27.85s27.85,12.47,27.85,27.85S15.38,127.85,0,127.85s-27.85-12.47-27.85-27.85ZM0,80.45c-10.8,0-19.55,8.75-19.55,19.55S-10.8,119.55,0,119.55s19.55-8.75,19.55-19.55S10.8,80.45,0,80.45Z"/><path class="cls-2" d="M122.15,0c0-15.38,12.47-27.85,27.85-27.85S177.85-15.38,177.85,0s-12.47,27.85-27.85,27.85S122.15,15.38,122.15,0Zm27.85-19.55C139.2-19.55,130.45-10.8,130.45,0s8.75,19.55,19.55,19.55S169.55,10.8,169.55,0s-8.75-19.55-19.55-19.55Z"/><path class="cls-2" d="M22.15,0c0-15.38,12.47-27.85,27.85-27.85S77.85-15.38,77.85,0s-12.47,27.85-27.85,27.85S22.15,15.38,22.15,0Zm27.85-19.55C39.2-19.55,30.45-10.8,30.45,0s8.75,19.55,19.55,19.55S69.55,10.8,69.55,0s-8.75-19.55-19.55-19.55Z"/></svg>