<?xml version="1.0" encoding="UTF-8"?><svg id="Layer_1" xmlns="http://www.w3.org/2000/svg" viewBox="0 0 200 200"><defs><style>.cls-1,.cls-2,.cls-3{fill:none;}.cls-2{stroke-width:1.44px;}.cls-2,.cls-3{stroke:#38c6a1;stroke-miterlimit:10;}.cls-3{stroke-width:1.45px;}</style></defs><rect class="cls-1" y="0" width="200" height="200"/><polygon class="cls-3" points="156.09 200 125.29 168.8 134.04 160 173.51 200 134.04 240 125.29 231.21 156.09 200"/><path class="cls-2" d="M9.74,200c0-22.09,17.91-40,40-40s40,17.91,40,40-17.91,40-40,40-40-17.91-40-40Zm40-28.09c-15.51,0-28.09,12.57-28.09,28.09s12.57,28.09,28.09,28.09,28.09-12.57,28.09-28.09-12.57-28.09-28.09-28.09Z"/><g><path class="cls-2" d="M109.74,100c0-22.09,17.91-40,40-40s40,17.91,40,40-17.91,40-40,40-40-17.91-40-40Zm40-28.09c-15.51,0-28.09,12.57-28.09,28.09s12.57,28.09,28.09,28.09,28.09-12.57,28.09-28.09-12.57-28.09-28.09-28.09Z"/><polygon class="cls-3" points="56.09 100 25.29 68.8 34.04 60 73.51 100 34.04 140 25.29 131.21 56.09 100"/></g><polygon class="cls-3" points="156.09 0 125.29 -31.2 134.04 -40 173.51 0 134.04 40 125.29 31.21 156.09 0"/><path class="cls-2" d="M9.74,0c0-22.09,17.91-40,40-40S89.74-22.09,89.74,0s-17.91,40-40,40S9.74,22.09,9.74,0ZM49.74-28.09C34.23-28.09,21.66-15.51,21.66,0s12.57,28.09,28.09,28.09S77.83,15.51,77.83,0s-12.57-28.09-28.09-28.09Z"/></svg>