<?xml version="1.0" encoding="UTF-8"?><svg id="Layer_1" xmlns="http://www.w3.org/2000/svg" viewBox="0 0 200 200"><defs><style>.cls-1,.cls-2{fill:none;}.cls-2{stroke:#38c6a1;stroke-miterlimit:10;}</style></defs><rect class="cls-1" x="0" y="0" width="200" height="200"/><polygon class="cls-2" points="177.64 178.45 171.55 172.36 150 193.91 128.45 172.36 122.36 178.45 143.91 200 122.36 221.55 128.45 227.64 150 206.09 171.55 227.64 177.64 221.55 156.09 200 177.64 178.45"/><polygon class="cls-2" points="77.64 178.45 71.55 172.36 50 193.91 28.45 172.36 22.36 178.45 43.91 200 22.36 221.55 28.45 227.64 50 206.09 71.55 227.64 77.64 221.55 56.09 200 77.64 178.45"/><polygon class="cls-2" points="227.64 78.45 221.55 72.36 200 93.91 178.45 72.36 172.36 78.45 193.91 100 172.36 121.55 178.45 127.64 200 106.09 221.55 127.64 227.64 121.55 206.09 100 227.64 78.45"/><polygon class="cls-2" points="127.64 78.45 121.55 72.36 100 93.91 78.45 72.36 72.36 78.45 93.91 100 72.36 121.55 78.45 127.64 100 106.09 121.55 127.64 127.64 121.55 106.09 100 127.64 78.45"/><polygon class="cls-2" points="27.64 78.45 21.55 72.36 0 93.91 -21.55 72.36 -27.64 78.45 -6.09 100 -27.64 121.55 -21.55 127.64 0 106.09 21.55 127.64 27.64 121.55 6.09 100 27.64 78.45"/><polygon class="cls-2" points="177.64 -21.55 171.55 -27.64 150 -6.09 128.45 -27.64 122.36 -21.55 143.91 0 122.36 21.55 128.45 27.64 150 6.09 171.55 27.64 177.64 21.55 156.09 0 177.64 -21.55"/><polygon class="cls-2" points="77.64 -21.55 71.55 -27.64 50 -6.09 28.45 -27.64 22.36 -21.55 43.91 0 22.36 21.55 28.45 27.64 50 6.09 71.55 27.64 77.64 21.55 56.09 0 77.64 -21.55"/></svg>