<?xml version="1.0" encoding="UTF-8"?><svg id="Layer_1" xmlns="http://www.w3.org/2000/svg" viewBox="0 0 200 200"><defs><style>.cls-1{fill:none;}.cls-2{fill:#38c6a1;}</style></defs><rect class="cls-1" x="0" y="0" width="200" height="200"/><g><polygon class="cls-2" points="200 142.05 220.51 122.35 226.3 127.94 200 153.2 173.7 127.94 179.49 122.35 200 142.05"/><polygon class="cls-2" points="200 166.5 220.51 146.8 226.3 152.39 200 177.65 173.7 152.39 179.49 146.8 200 166.5"/></g><g><polygon class="cls-2" points="100 192.05 120.51 172.35 126.3 177.94 100 203.2 73.7 177.94 79.49 172.35 100 192.05"/><polygon class="cls-2" points="100 216.5 120.51 196.8 126.3 202.39 100 227.65 73.7 202.39 79.49 196.8 100 216.5"/></g><g><polygon class="cls-2" points="0 142.05 20.51 122.35 26.3 127.94 0 153.2 -26.3 127.94 -20.51 122.35 0 142.05"/><polygon class="cls-2" points="0 166.5 20.51 146.8 26.3 152.39 0 177.65 -26.3 152.39 -20.51 146.8 0 166.5"/></g><g><polygon class="cls-2" points="200 42.05 220.51 22.35 226.3 27.94 200 53.2 173.7 27.94 179.49 22.35 200 42.05"/><polygon class="cls-2" points="200 66.5 220.51 46.8 226.3 52.39 200 77.65 173.7 52.39 179.49 46.8 200 66.5"/></g><g><polygon class="cls-2" points="100 92.05 120.51 72.35 126.3 77.94 100 103.2 73.7 77.94 79.49 72.35 100 92.05"/><polygon class="cls-2" points="100 116.5 120.51 96.8 126.3 102.39 100 127.65 73.7 102.39 79.49 96.8 100 116.5"/></g><g><polygon class="cls-2" points="0 42.05 20.51 22.35 26.3 27.94 0 53.2 -26.3 27.94 -20.51 22.35 0 42.05"/><polygon class="cls-2" points="0 66.5 20.51 46.8 26.3 52.39 0 77.65 -26.3 52.39 -20.51 46.8 0 66.5"/></g><g><polygon class="cls-2" points="100 -7.95 120.51 -27.65 126.3 -22.06 100 3.2 73.7 -22.06 79.49 -27.65 100 -7.95"/><polygon class="cls-2" points="100 16.5 120.51 -3.2 126.3 2.39 100 27.65 73.7 2.39 79.49 -3.2 100 16.5"/></g></svg>