<?xml version="1.0" encoding="UTF-8"?><svg id="Layer_1" xmlns="http://www.w3.org/2000/svg" viewBox="0 0 200 200"><defs><style>.cls-1,.cls-2{fill:none;}.cls-2{stroke:#38c6a1;stroke-miterlimit:10;stroke-width:1.28px;}</style></defs><rect class="cls-1" x="0" y=".47" width="200" height="200"/><g><rect class="cls-2" x="160.04" y="171.51" width="79.92" height="12.04"/><polygon class="cls-2" points="200 147.5 231.07 117.55 239.82 126.06 200 164.45 160.18 126.06 168.93 117.55 200 147.5"/></g><polygon class="cls-2" points="100 197.5 131.07 167.55 139.82 176.06 100 214.45 60.18 176.06 68.93 167.55 100 197.5"/><g><rect class="cls-2" x="-39.96" y="171.51" width="79.92" height="12.04"/><polygon class="cls-2" points="0 147.5 31.07 117.55 39.82 126.06 0 164.45 -39.82 126.06 -31.07 117.55 0 147.5"/></g><g><rect class="cls-2" x="160.04" y="71.51" width="79.92" height="12.04"/><polygon class="cls-2" points="200 47.5 231.07 17.55 239.82 26.06 200 64.45 160.18 26.06 168.93 17.55 200 47.5"/></g><g><rect class="cls-2" x="60.04" y="121.51" width="79.92" height="12.04"/><polygon class="cls-2" points="100 97.5 131.07 67.55 139.82 76.06 100 114.45 60.18 76.06 68.93 67.55 100 97.5"/></g><g><rect class="cls-2" x="-39.96" y="71.51" width="79.92" height="12.04"/><polygon class="cls-2" points="0 47.5 31.07 17.55 39.82 26.06 0 64.45 -39.82 26.06 -31.07 17.55 0 47.5"/></g><g><rect class="cls-2" x="60.04" y="21.51" width="79.92" height="12.04"/><polygon class="cls-2" points="100 -2.5 131.07 -32.45 139.82 -23.94 100 14.45 60.18 -23.94 68.93 -32.45 100 -2.5"/></g></svg>