<?xml version="1.0" encoding="UTF-8"?><svg id="Layer_1" xmlns="http://www.w3.org/2000/svg" viewBox="0 0 200 200"><defs><style>.cls-1,.cls-2{fill:none;}.cls-2{stroke:#38c6a1;stroke-miterlimit:10;stroke-width:.92px;}</style></defs><rect class="cls-1" x="0" y="6.79" width="200" height="200"/><polygon class="cls-2" points="150 204.68 172.37 183.12 178.67 189.24 150 216.88 121.33 189.24 127.63 183.12 150 204.68"/><polygon class="cls-2" points="50 204.68 72.37 183.12 78.67 189.24 50 216.88 21.33 189.24 27.63 183.12 50 204.68"/><g><rect class="cls-2" x="171.23" y="121.96" width="57.54" height="8.67"/><polygon class="cls-2" points="200 104.68 222.37 83.12 228.67 89.24 200 116.88 171.33 89.24 177.63 83.12 200 104.68"/></g><g><rect class="cls-2" x="71.23" y="121.96" width="57.54" height="8.67"/><polygon class="cls-2" points="100 104.68 122.37 83.12 128.67 89.24 100 116.88 71.33 89.24 77.63 83.12 100 104.68"/></g><g><rect class="cls-2" x="-28.77" y="121.96" width="57.54" height="8.67"/><polygon class="cls-2" points="0 104.68 22.37 83.12 28.67 89.24 0 116.88 -28.67 89.24 -22.37 83.12 0 104.68"/></g><g><rect class="cls-2" x="121.23" y="21.96" width="57.54" height="8.67"/><polygon class="cls-2" points="150 4.68 172.37 -16.88 178.67 -10.76 150 16.88 121.33 -10.76 127.63 -16.88 150 4.68"/></g><g><rect class="cls-2" x="21.23" y="21.96" width="57.54" height="8.67"/><polygon class="cls-2" points="50 4.68 72.37 -16.88 78.67 -10.76 50 16.88 21.33 -10.76 27.63 -16.88 50 4.68"/></g></svg>