<?xml version="1.0" encoding="UTF-8"?><svg id="Layer_1" xmlns="http://www.w3.org/2000/svg" viewBox="0 0 200 200"><defs><style>.cls-1{fill:none;}.cls-2{fill:#38c6a1;}</style></defs><rect class="cls-1" y="0" width="200" height="200"/><g><polygon class="cls-2" points="150 211.58 120.12 240.28 111.69 232.13 150 195.34 188.3 232.13 179.88 240.28 150 211.58"/><polygon class="cls-2" points="150 175.96 120.12 204.66 111.69 196.51 150 159.72 188.3 196.51 179.88 204.66 150 175.96"/></g><path class="cls-2" d="M9.74,200c0-22.09,17.91-40,40-40s40,17.91,40,40-17.91,40-40,40-40-17.91-40-40Zm40-28.09c-15.51,0-28.09,12.57-28.09,28.09s12.57,28.09,28.09,28.09,28.09-12.57,28.09-28.09-12.57-28.09-28.09-28.09Z"/><g><path class="cls-2" d="M109.74,100c0-22.09,17.91-40,40-40s40,17.91,40,40-17.91,40-40,40-40-17.91-40-40Zm40-28.09c-15.51,0-28.09,12.57-28.09,28.09s12.57,28.09,28.09,28.09,28.09-12.57,28.09-28.09-12.57-28.09-28.09-28.09Z"/><g><polygon class="cls-2" points="50 111.58 20.12 140.28 11.69 132.13 50 95.34 88.3 132.13 79.88 140.28 50 111.58"/><polygon class="cls-2" points="50 75.96 20.12 104.66 11.69 96.51 50 59.72 88.3 96.51 79.88 104.66 50 75.96"/></g></g><g><polygon class="cls-2" points="150 11.58 120.12 40.28 111.69 32.13 150 -4.66 188.3 32.13 179.88 40.28 150 11.58"/><polygon class="cls-2" points="150 -24.04 120.12 4.66 111.69 -3.49 150 -40.28 188.3 -3.49 179.88 4.66 150 -24.04"/></g><path class="cls-2" d="M9.74,0c0-22.09,17.91-40,40-40S89.74-22.09,89.74,0s-17.91,40-40,40S9.74,22.09,9.74,0ZM49.74-28.08C34.23-28.08,21.66-15.51,21.66,0s12.57,28.09,28.09,28.09S77.83,15.51,77.83,0s-12.57-28.09-28.09-28.09Z"/></svg>