<?xml version="1.0" encoding="UTF-8"?><svg id="Layer_1" xmlns="http://www.w3.org/2000/svg" viewBox="0 0 200 200"><defs><style>.cls-1{fill:none;}.cls-2{fill:#38c6a1;}</style></defs><rect class="cls-1" x="0" y="0" width="200" height="200"/><polygon class="cls-2" points="177.5 203.4 177.5 196.6 153.4 196.6 153.4 172.5 146.6 172.5 146.6 196.6 122.5 196.6 122.5 203.4 146.6 203.4 146.6 227.5 153.4 227.5 153.4 203.4 177.5 203.4"/><polygon class="cls-2" points="77.5 203.4 77.5 196.6 53.4 196.6 53.4 172.5 46.6 172.5 46.6 196.6 22.5 196.6 22.5 203.4 46.6 203.4 46.6 227.5 53.4 227.5 53.4 203.4 77.5 203.4"/><polygon class="cls-2" points="227.5 103.4 227.5 96.6 203.4 96.6 203.4 72.5 196.6 72.5 196.6 96.6 172.5 96.6 172.5 103.4 196.6 103.4 196.6 127.5 203.4 127.5 203.4 103.4 227.5 103.4"/><polygon class="cls-2" points="127.5 103.4 127.5 96.6 103.4 96.6 103.4 72.5 96.6 72.5 96.6 96.6 72.5 96.6 72.5 103.4 96.6 103.4 96.6 127.5 103.4 127.5 103.4 103.4 127.5 103.4"/><polygon class="cls-2" points="27.5 103.4 27.5 96.6 3.4 96.6 3.4 72.5 -3.4 72.5 -3.4 96.6 -27.5 96.6 -27.5 103.4 -3.4 103.4 -3.4 127.5 3.4 127.5 3.4 103.4 27.5 103.4"/><polygon class="cls-2" points="177.5 3.4 177.5 -3.4 153.4 -3.4 153.4 -27.5 146.6 -27.5 146.6 -3.4 122.5 -3.4 122.5 3.4 146.6 3.4 146.6 27.5 153.4 27.5 153.4 3.4 177.5 3.4"/><polygon class="cls-2" points="77.5 3.4 77.5 -3.4 53.4 -3.4 53.4 -27.5 46.6 -27.5 46.6 -3.4 22.5 -3.4 22.5 3.4 46.6 3.4 46.6 27.5 53.4 27.5 53.4 3.4 77.5 3.4"/></svg>