<?xml version="1.0" encoding="UTF-8"?><svg id="Layer_1" xmlns="http://www.w3.org/2000/svg" viewBox="0 0 200 200"><defs><style>.cls-1{fill:none;}.cls-2{fill:#38c6a1;}</style></defs><rect class="cls-1" y="0" width="200" height="200"/><g><polygon class="cls-2" points="138.42 200 109.72 170.12 117.87 161.7 154.66 200 117.87 238.3 109.72 229.88 138.42 200"/><polygon class="cls-2" points="174.04 200 145.33 170.12 153.48 161.7 190.28 200 153.48 238.3 145.33 229.88 174.04 200"/></g><path class="cls-2" d="M9.74,200c0-22.09,17.91-40,40-40s40,17.91,40,40-17.91,40-40,40-40-17.91-40-40Zm40-28.09c-15.51,0-28.09,12.57-28.09,28.09s12.57,28.09,28.09,28.09,28.09-12.57,28.09-28.09-12.57-28.09-28.09-28.09Z"/><g><path class="cls-2" d="M109.74,100c0-22.09,17.91-40,40-40s40,17.91,40,40-17.91,40-40,40-40-17.91-40-40Zm40-28.09c-15.51,0-28.09,12.57-28.09,28.09s12.57,28.09,28.09,28.09,28.09-12.57,28.09-28.09-12.57-28.09-28.09-28.09Z"/><g><polygon class="cls-2" points="38.42 100 9.72 70.12 17.87 61.7 54.66 100 17.87 138.3 9.72 129.88 38.42 100"/><polygon class="cls-2" points="74.04 100 45.33 70.12 53.48 61.7 90.28 100 53.48 138.3 45.33 129.88 74.04 100"/></g></g><g><polygon class="cls-2" points="138.42 0 109.72 -29.88 117.87 -38.3 154.66 0 117.87 38.3 109.72 29.88 138.42 0"/><polygon class="cls-2" points="174.04 0 145.33 -29.88 153.48 -38.3 190.28 0 153.48 38.3 145.33 29.88 174.04 0"/></g><path class="cls-2" d="M9.74,0c0-22.09,17.91-40,40-40S89.74-22.09,89.74,0s-17.91,40-40,40S9.74,22.09,9.74,0ZM49.74-28.09C34.23-28.09,21.66-15.51,21.66,0s12.57,28.09,28.09,28.09S77.83,15.51,77.83,0s-12.57-28.09-28.09-28.09Z"/></svg>