<?xml version="1.0" encoding="UTF-8"?><svg id="Layer_1" xmlns="http://www.w3.org/2000/svg" viewBox="0 0 200 200"><defs><style>.cls-1{fill:none;}.cls-2{fill:#38c6a1;}</style></defs><rect class="cls-1" y="-.55" width="200" height="200"/><g><polygon class="cls-2" points="149.74 202.81 120.06 231.33 111.69 223.23 149.74 186.67 187.8 223.23 179.43 231.33 149.74 202.81"/><polygon class="cls-2" points="149.74 167.42 120.06 195.94 111.69 187.84 149.74 151.29 187.8 187.84 179.43 195.94 149.74 167.42"/></g><g><g><polygon class="cls-2" points="50 160.95 20.31 189.47 11.94 181.37 50 144.82 88.06 181.37 79.69 189.47 50 160.95"/><polygon class="cls-2" points="50 125.57 20.31 154.08 11.94 145.99 50 109.43 88.06 145.99 79.69 154.08 50 125.57"/></g><g><polygon class="cls-2" points="149.74 102.81 120.06 131.33 111.69 123.23 149.74 86.67 187.8 123.23 179.43 131.33 149.74 102.81"/><polygon class="cls-2" points="149.74 67.42 120.06 95.94 111.69 87.84 149.74 51.29 187.8 87.84 179.43 95.94 149.74 67.42"/></g></g><g><g><polygon class="cls-2" points="50 60.95 20.31 89.47 11.94 81.37 50 44.82 88.06 81.37 79.69 89.47 50 60.95"/><polygon class="cls-2" points="50 25.57 20.31 54.08 11.94 45.99 50 9.43 88.06 45.99 79.69 54.08 50 25.57"/></g><polygon class="cls-2" points="149.74 2.81 120.06 31.33 111.69 23.23 149.74 -13.33 187.8 23.23 179.43 31.33 149.74 2.81"/></g></svg>