<?xml version="1.0" encoding="UTF-8"?><svg id="Layer_1" xmlns="http://www.w3.org/2000/svg" viewBox="0 0 200 200"><defs><style>.cls-1{fill:none;}.cls-2{fill:#38c6a1;}</style></defs><rect class="cls-1" x="0" y="0" width="200" height="200"/><g><polygon class="cls-2" points="200 157.95 179.49 177.65 173.7 172.06 200 146.8 226.3 172.06 220.51 177.65 200 157.95"/><polygon class="cls-2" points="200 133.5 179.49 153.2 173.7 147.61 200 122.35 226.3 147.61 220.51 153.2 200 133.5"/></g><g><polygon class="cls-2" points="100 207.95 79.49 227.65 73.7 222.06 100 196.8 126.3 222.06 120.51 227.65 100 207.95"/><polygon class="cls-2" points="100 183.5 79.49 203.2 73.7 197.61 100 172.35 126.3 197.61 120.51 203.2 100 183.5"/></g><g><polygon class="cls-2" points="0 157.95 -20.51 177.65 -26.3 172.06 0 146.8 26.3 172.06 20.51 177.65 0 157.95"/><polygon class="cls-2" points="0 133.5 -20.51 153.2 -26.3 147.61 0 122.35 26.3 147.61 20.51 153.2 0 133.5"/></g><g><polygon class="cls-2" points="200 57.95 179.49 77.65 173.7 72.06 200 46.8 226.3 72.06 220.51 77.65 200 57.95"/><polygon class="cls-2" points="200 33.5 179.49 53.2 173.7 47.61 200 22.35 226.3 47.61 220.51 53.2 200 33.5"/></g><g><polygon class="cls-2" points="100 107.95 79.49 127.65 73.7 122.06 100 96.8 126.3 122.06 120.51 127.65 100 107.95"/><polygon class="cls-2" points="100 83.5 79.49 103.2 73.7 97.61 100 72.35 126.3 97.61 120.51 103.2 100 83.5"/></g><g><polygon class="cls-2" points="0 57.95 -20.51 77.65 -26.3 72.06 0 46.8 26.3 72.06 20.51 77.65 0 57.95"/><polygon class="cls-2" points="0 33.5 -20.51 53.2 -26.3 47.61 0 22.35 26.3 47.61 20.51 53.2 0 33.5"/></g><g><polygon class="cls-2" points="100 7.95 79.49 27.65 73.7 22.06 100 -3.2 126.3 22.06 120.51 27.65 100 7.95"/><polygon class="cls-2" points="100 -16.5 79.49 3.2 73.7 -2.39 100 -27.65 126.3 -2.39 120.51 3.2 100 -16.5"/></g></svg>