<?xml version="1.0" encoding="UTF-8"?><svg id="Layer_1" xmlns="http://www.w3.org/2000/svg" viewBox="0 0 200 200"><defs><style>.cls-1{fill:none;}.cls-2{fill:#38c6a1;}</style></defs><rect class="cls-1" x="-10" y="0" width="220" height="200"/><g><polygon class="cls-2" points="120.91 200 148.44 228.65 140.62 236.73 105.34 200 140.62 163.27 148.44 171.35 120.91 200"/><polygon class="cls-2" points="189.98 200 162.46 171.35 170.27 163.27 205.56 200 170.27 236.73 162.46 228.65 189.98 200"/></g><g><polygon class="cls-2" points="10.91 200 38.44 228.65 30.62 236.73 -4.66 200 30.62 163.27 38.44 171.35 10.91 200"/><polygon class="cls-2" points="79.98 200 52.46 171.35 60.27 163.27 95.56 200 60.27 236.73 52.46 228.65 79.98 200"/></g><polygon class="cls-2" points="175.91 100 203.44 128.65 195.62 136.73 160.34 100 195.62 63.27 203.44 71.35 175.91 100"/><g><polygon class="cls-2" points="65.91 100 93.44 128.65 85.62 136.73 50.34 100 85.62 63.27 93.44 71.35 65.91 100"/><polygon class="cls-2" points="134.98 100 107.46 71.35 115.27 63.27 150.56 100 115.27 136.73 107.46 128.65 134.98 100"/></g><polygon class="cls-2" points="24.98 100 -2.54 71.35 5.27 63.27 40.56 100 5.27 136.73 -2.54 128.65 24.98 100"/><g><polygon class="cls-2" points="120.91 0 148.44 28.65 140.62 36.73 105.34 0 140.62 -36.73 148.44 -28.65 120.91 0"/><polygon class="cls-2" points="189.98 0 162.46 -28.65 170.27 -36.73 205.56 0 170.27 36.73 162.46 28.65 189.98 0"/></g><g><polygon class="cls-2" points="10.91 0 38.44 28.65 30.62 36.73 -4.66 0 30.62 -36.73 38.44 -28.65 10.91 0"/><polygon class="cls-2" points="79.98 0 52.46 -28.65 60.27 -36.73 95.56 0 60.27 36.73 52.46 28.65 79.98 0"/></g></svg>