<?xml version="1.0" encoding="UTF-8"?><svg id="Layer_1" xmlns="http://www.w3.org/2000/svg" viewBox="0 0 200 200"><defs><style>.cls-1,.cls-2{fill:none;}.cls-2{stroke:#38c6a1;stroke-miterlimit:10;}</style></defs><rect class="cls-1" x="0" y="0" width="200" height="200"/><g><polygon class="cls-2" points="192.05 150 172.35 129.49 177.94 123.7 203.2 150 177.94 176.3 172.35 170.51 192.05 150"/><polygon class="cls-2" points="216.5 150 196.8 129.49 202.39 123.7 227.65 150 202.39 176.3 196.8 170.51 216.5 150"/></g><g><polygon class="cls-2" points="92.05 200 72.35 179.49 77.94 173.7 103.2 200 77.94 226.3 72.35 220.51 92.05 200"/><polygon class="cls-2" points="116.5 200 96.8 179.49 102.39 173.7 127.65 200 102.39 226.3 96.8 220.51 116.5 200"/></g><g><polygon class="cls-2" points="-7.95 150 -27.65 129.49 -22.06 123.7 3.2 150 -22.06 176.3 -27.65 170.51 -7.95 150"/><polygon class="cls-2" points="16.5 150 -3.2 129.49 2.39 123.7 27.65 150 2.39 176.3 -3.2 170.51 16.5 150"/></g><g><polygon class="cls-2" points="192.05 50 172.35 29.49 177.94 23.7 203.2 50 177.94 76.3 172.35 70.51 192.05 50"/><polygon class="cls-2" points="216.5 50 196.8 29.49 202.39 23.7 227.65 50 202.39 76.3 196.8 70.51 216.5 50"/></g><g><polygon class="cls-2" points="92.05 100 72.35 79.49 77.94 73.7 103.2 100 77.94 126.3 72.35 120.51 92.05 100"/><polygon class="cls-2" points="116.5 100 96.8 79.49 102.39 73.7 127.65 100 102.39 126.3 96.8 120.51 116.5 100"/></g><g><polygon class="cls-2" points="-7.95 50 -27.65 29.49 -22.06 23.7 3.2 50 -22.06 76.3 -27.65 70.51 -7.95 50"/><polygon class="cls-2" points="16.5 50 -3.2 29.49 2.39 23.7 27.65 50 2.39 76.3 -3.2 70.51 16.5 50"/></g><g><polygon class="cls-2" points="92.05 0 72.35 -20.51 77.94 -26.3 103.2 0 77.94 26.3 72.35 20.51 92.05 0"/><polygon class="cls-2" points="116.5 0 96.8 -20.51 102.39 -26.3 127.65 0 102.39 26.3 96.8 20.51 116.5 0"/></g></svg>