<?xml version="1.0" encoding="UTF-8"?><svg id="Layer_1" xmlns="http://www.w3.org/2000/svg" viewBox="0 0 200 200"><defs><style>.cls-1{fill:none;}.cls-2{fill:#38c6a1;}</style></defs><rect class="cls-1" x="0" y="0" width="200" height="200"/><g><polygon class="cls-2" points="207.95 150 227.65 170.51 222.06 176.3 196.8 150 222.06 123.7 227.65 129.49 207.95 150"/><polygon class="cls-2" points="183.5 150 203.2 170.51 197.61 176.3 172.35 150 197.61 123.7 203.2 129.49 183.5 150"/></g><g><polygon class="cls-2" points="107.95 200 127.65 220.51 122.06 226.3 96.8 200 122.06 173.7 127.65 179.49 107.95 200"/><polygon class="cls-2" points="83.5 200 103.2 220.51 97.61 226.3 72.35 200 97.61 173.7 103.2 179.49 83.5 200"/></g><g><polygon class="cls-2" points="7.95 150 27.65 170.51 22.06 176.3 -3.2 150 22.06 123.7 27.65 129.49 7.95 150"/><polygon class="cls-2" points="-16.5 150 3.2 170.51 -2.39 176.3 -27.65 150 -2.39 123.7 3.2 129.49 -16.5 150"/></g><g><polygon class="cls-2" points="207.95 50 227.65 70.51 222.06 76.3 196.8 50 222.06 23.7 227.65 29.49 207.95 50"/><polygon class="cls-2" points="183.5 50 203.2 70.51 197.61 76.3 172.35 50 197.61 23.7 203.2 29.49 183.5 50"/></g><g><polygon class="cls-2" points="107.95 100 127.65 120.51 122.06 126.3 96.8 100 122.06 73.7 127.65 79.49 107.95 100"/><polygon class="cls-2" points="83.5 100 103.2 120.51 97.61 126.3 72.35 100 97.61 73.7 103.2 79.49 83.5 100"/></g><g><polygon class="cls-2" points="7.95 50 27.65 70.51 22.06 76.3 -3.2 50 22.06 23.7 27.65 29.49 7.95 50"/><polygon class="cls-2" points="-16.5 50 3.2 70.51 -2.39 76.3 -27.65 50 -2.39 23.7 3.2 29.49 -16.5 50"/></g><g><polygon class="cls-2" points="107.95 0 127.65 20.51 122.06 26.3 96.8 0 122.06 -26.3 127.65 -20.51 107.95 0"/><polygon class="cls-2" points="83.5 0 103.2 20.51 97.61 26.3 72.35 0 97.61 -26.3 103.2 -20.51 83.5 0"/></g></svg>