<?xml version="1.0" encoding="UTF-8"?><svg id="Layer_1" xmlns="http://www.w3.org/2000/svg" viewBox="0 0 200 200"><defs><style>.cls-1{fill:none;}.cls-2{fill:#38c6a1;}</style></defs><rect class="cls-1" y="0" width="200" height="200"/><polygon class="cls-2" points="154.02 200 132.75 178.44 138.79 172.36 166.06 200 138.79 227.64 132.75 221.56 154.02 200"/><path class="cls-2" d="M21.9,200c0-15.38,12.47-27.85,27.85-27.85s27.85,12.47,27.85,27.85-12.47,27.85-27.85,27.85-27.85-12.47-27.85-27.85Zm27.85-19.55c-10.8,0-19.55,8.75-19.55,19.55s8.75,19.55,19.55,19.55,19.55-8.75,19.55-19.55-8.75-19.55-19.55-19.55Z"/><g><path class="cls-2" d="M121.9,100c0-15.38,12.47-27.85,27.85-27.85s27.85,12.47,27.85,27.85-12.47,27.85-27.85,27.85-27.85-12.47-27.85-27.85Zm27.85-19.55c-10.8,0-19.55,8.75-19.55,19.55s8.75,19.55,19.55,19.55,19.55-8.75,19.55-19.55-8.75-19.55-19.55-19.55Z"/><polygon class="cls-2" points="54.02 100 32.75 78.44 38.79 72.36 66.06 100 38.79 127.64 32.75 121.56 54.02 100"/></g><polygon class="cls-2" points="154.02 0 132.75 -21.56 138.79 -27.64 166.06 0 138.79 27.64 132.75 21.56 154.02 0"/><path class="cls-2" d="M21.9,0c0-15.38,12.47-27.85,27.85-27.85S77.59-15.38,77.59,0s-12.47,27.85-27.85,27.85S21.9,15.38,21.9,0Zm27.85-19.55C38.95-19.55,30.19-10.8,30.19,0s8.75,19.55,19.55,19.55S69.3,10.8,69.3,0s-8.75-19.55-19.55-19.55Z"/></svg>