<?xml version="1.0" encoding="UTF-8"?><svg id="Layer_1" xmlns="http://www.w3.org/2000/svg" viewBox="0 0 200 200"><defs><style>.cls-1,.cls-2{fill:none;}.cls-2{stroke:#38c6a1;stroke-miterlimit:10;stroke-width:1.45px;}</style></defs><rect class="cls-1" x="-50" y="-50" width="300" height="300"/><polygon class="cls-2" points="209.45 200 237.97 229.69 229.87 238.06 193.31 200 229.87 161.94 237.97 170.31 209.45 200"/><g><polygon class="cls-2" points="144.83 200 173.35 229.69 165.26 238.06 128.7 200 165.26 161.94 173.35 170.31 144.83 200"/><polygon class="cls-2" points="109.45 200 137.97 229.69 129.87 238.06 93.31 200 129.87 161.94 137.97 170.31 109.45 200"/></g><g><polygon class="cls-2" points="44.83 200 73.35 229.69 65.26 238.06 28.7 200 65.26 161.94 73.35 170.31 44.83 200"/><polygon class="cls-2" points="9.45 200 37.97 229.69 29.87 238.06 -6.69 200 29.87 161.94 37.97 170.31 9.45 200"/></g><g><polygon class="cls-2" points="211.5 100 240.02 129.69 231.92 138.06 195.37 100 231.92 61.94 240.02 70.31 211.5 100"/><polygon class="cls-2" points="176.12 100 204.63 129.69 196.54 138.06 159.98 100 196.54 61.94 204.63 70.31 176.12 100"/></g><g><polygon class="cls-2" points="111.5 100 140.02 129.69 131.92 138.06 95.37 100 131.92 61.94 140.02 70.31 111.5 100"/><polygon class="cls-2" points="76.12 100 104.63 129.69 96.54 138.06 59.98 100 96.54 61.94 104.63 70.31 76.12 100"/></g><g><polygon class="cls-2" points="11.5 100 40.02 129.69 31.92 138.06 -4.63 100 31.92 61.94 40.02 70.31 11.5 100"/><polygon class="cls-2" points="-23.88 100 4.63 129.69 -3.46 138.06 -40.02 100 -3.46 61.94 4.63 70.31 -23.88 100"/></g><g><polygon class="cls-2" points="178.17 0 206.69 29.69 198.59 38.06 162.03 0 198.59 -38.06 206.69 -29.69 178.17 0"/><polygon class="cls-2" points="142.78 0 171.3 29.69 163.2 38.06 126.65 0 163.2 -38.06 171.3 -29.69 142.78 0"/></g><g><polygon class="cls-2" points="78.17 0 106.69 29.69 98.59 38.06 62.03 0 98.59 -38.06 106.69 -29.69 78.17 0"/><polygon class="cls-2" points="42.78 0 71.3 29.69 63.2 38.06 26.65 0 63.2 -38.06 71.3 -29.69 42.78 0"/></g><polygon class="cls-2" points="-21.83 0 6.69 29.69 -1.41 38.06 -37.97 0 -1.41 -38.06 6.69 -29.69 -21.83 0"/></svg>