<?xml version="1.0" encoding="UTF-8"?><svg id="Layer_1" xmlns="http://www.w3.org/2000/svg" viewBox="0 0 400 300"><defs><style>.cls-1,.cls-2{fill:none;}.cls-2{stroke:#38c6a1;stroke-miterlimit:10;}</style></defs><rect class="cls-1" x="-.11" width="400" height="300"/><g><path class="cls-2" d="M387.4,250c0-15.38,12.47-27.85,27.85-27.85s27.85,12.47,27.85,27.85-12.47,27.85-27.85,27.85-27.85-12.47-27.85-27.85Zm27.85-19.55c-10.8,0-19.55,8.75-19.55,19.55s8.75,19.55,19.55,19.55,19.55-8.75,19.55-19.55-8.75-19.55-19.55-19.55Z"/><g><polygon class="cls-2" points="307.3 250 287.59 229.49 293.19 223.7 318.45 250 293.19 276.3 287.59 270.51 307.3 250"/><polygon class="cls-2" points="331.75 250 312.04 229.49 317.64 223.7 342.9 250 317.64 276.3 312.04 270.51 331.75 250"/></g></g><g><path class="cls-2" d="M-12.6,250c0-15.38,12.47-27.85,27.85-27.85s27.85,12.47,27.85,27.85-12.47,27.85-27.85,27.85-27.85-12.47-27.85-27.85Zm27.85-19.55c-10.8,0-19.55,8.75-19.55,19.55s8.75,19.55,19.55,19.55,19.55-8.75,19.55-19.55-8.75-19.55-19.55-19.55Z"/><polygon class="cls-2" points="145.52 228.44 139.43 222.36 117.88 243.91 96.32 222.36 90.24 228.44 111.79 250 90.24 271.55 96.32 277.64 117.88 256.08 139.43 277.64 145.52 271.55 123.96 250 145.52 228.44"/><g><rect class="cls-2" x="188.71" y="235.32" width="55.69" height="9.25"/><rect class="cls-2" x="188.71" y="255.43" width="55.69" height="9.25"/></g></g><g><path class="cls-2" d="M120.73,150c0-15.38,12.47-27.85,27.85-27.85s27.85,12.47,27.85,27.85-12.47,27.85-27.85,27.85-27.85-12.47-27.85-27.85Zm27.85-19.55c-10.8,0-19.55,8.75-19.55,19.55s8.75,19.55,19.55,19.55,19.55-8.75,19.55-19.55-8.75-19.55-19.55-19.55Z"/><g><polygon class="cls-2" points="40.63 150 20.92 129.49 26.52 123.7 51.78 150 26.52 176.3 20.92 170.51 40.63 150"/><polygon class="cls-2" points="65.08 150 45.37 129.49 50.97 123.7 76.23 150 50.97 176.3 45.37 170.51 65.08 150"/></g><polygon class="cls-2" points="278.86 128.44 272.77 122.36 251.22 143.91 229.66 122.36 223.58 128.44 245.13 150 223.58 171.55 229.66 177.64 251.22 156.08 272.77 177.64 278.86 171.55 257.3 150 278.86 128.44"/><g><rect class="cls-2" x="322.04" y="135.32" width="55.69" height="9.25"/><rect class="cls-2" x="322.04" y="155.43" width="55.69" height="9.25"/></g></g><g><path class="cls-2" d="M254.06,50c0-15.38,12.47-27.85,27.85-27.85s27.85,12.47,27.85,27.85-12.47,27.85-27.85,27.85-27.85-12.47-27.85-27.85Zm27.85-19.55c-10.8,0-19.55,8.75-19.55,19.55s8.75,19.55,19.55,19.55,19.55-8.75,19.55-19.55-8.75-19.55-19.55-19.55Z"/><g><polygon class="cls-2" points="173.96 50 154.26 29.49 159.85 23.7 185.11 50 159.85 76.3 154.26 70.51 173.96 50"/><polygon class="cls-2" points="198.41 50 178.71 29.49 184.3 23.7 209.56 50 184.3 76.3 178.71 70.51 198.41 50"/></g><polygon class="cls-2" points="412.19 28.44 406.1 22.36 384.55 43.91 362.99 22.36 356.91 28.44 378.46 50 356.91 71.55 362.99 77.64 384.55 56.08 406.1 77.64 412.19 71.55 390.63 50 412.19 28.44"/></g><g><polygon class="cls-2" points="12.19 28.44 6.1 22.36 -15.45 43.91 -37.01 22.36 -43.09 28.44 -21.54 50 -43.09 71.55 -37.01 77.64 -15.45 56.08 6.1 77.64 12.19 71.55 -9.37 50 12.19 28.44"/><g><rect class="cls-2" x="55.38" y="35.32" width="55.69" height="9.25"/><rect class="cls-2" x="55.38" y="55.43" width="55.69" height="9.25"/></g></g></svg>