<?xml version="1.0" encoding="UTF-8"?><svg id="Layer_1" xmlns="http://www.w3.org/2000/svg" viewBox="0 0 300 200"><defs><style>.cls-1,.cls-2{fill:none;}.cls-2{stroke:#38c6a1;stroke-miterlimit:10;}</style></defs><rect class="cls-1" x="0" y="0" width="300" height="200"/><g><path class="cls-2" d="M272.15,200c0-15.38,12.47-27.85,27.85-27.85s27.85,12.47,27.85,27.85-12.47,27.85-27.85,27.85-27.85-12.47-27.85-27.85Zm27.85-19.55c-10.8,0-19.55,8.75-19.55,19.55s8.75,19.55,19.55,19.55,19.55-8.75,19.55-19.55-8.75-19.55-19.55-19.55Z"/><g><polygon class="cls-2" points="192.05 200 172.35 179.49 177.94 173.7 203.2 200 177.94 226.3 172.35 220.51 192.05 200"/><polygon class="cls-2" points="216.5 200 196.8 179.49 202.39 173.7 227.65 200 202.39 226.3 196.8 220.51 216.5 200"/></g></g><g><path class="cls-2" d="M-27.85,200c0-15.38,12.47-27.85,27.85-27.85s27.85,12.47,27.85,27.85-12.47,27.85-27.85,27.85-27.85-12.47-27.85-27.85ZM0,180.45c-10.8,0-19.55,8.75-19.55,19.55s8.75,19.55,19.55,19.55,19.55-8.75,19.55-19.55-8.75-19.55-19.55-19.55Z"/><polygon class="cls-2" points="130.28 178.44 124.19 172.36 102.64 193.91 81.08 172.36 75 178.44 96.55 200 75 221.55 81.08 227.64 102.64 206.08 124.19 227.64 130.28 221.55 108.72 200 130.28 178.44"/></g><g><path class="cls-2" d="M122.15,100c0-15.38,12.47-27.85,27.85-27.85s27.85,12.47,27.85,27.85-12.47,27.85-27.85,27.85-27.85-12.47-27.85-27.85Zm27.85-19.55c-10.8,0-19.55,8.75-19.55,19.55s8.75,19.55,19.55,19.55,19.55-8.75,19.55-19.55-8.75-19.55-19.55-19.55Z"/><g><polygon class="cls-2" points="42.05 100 22.35 79.49 27.94 73.7 53.2 100 27.94 126.3 22.35 120.51 42.05 100"/><polygon class="cls-2" points="66.5 100 46.8 79.49 52.39 73.7 77.65 100 52.39 126.3 46.8 120.51 66.5 100"/></g><polygon class="cls-2" points="280.28 78.44 274.19 72.36 252.64 93.91 231.08 72.36 225 78.44 246.55 100 225 121.55 231.08 127.64 252.64 106.08 274.19 127.64 280.28 121.55 258.72 100 280.28 78.44"/></g><g><path class="cls-2" d="M272.15,0c0-15.38,12.47-27.85,27.85-27.85S327.85-15.38,327.85,0s-12.47,27.85-27.85,27.85S272.15,15.38,272.15,0Zm27.85-19.55c-10.8,0-19.55,8.75-19.55,19.55s8.75,19.55,19.55,19.55S319.55,10.8,319.55,0s-8.75-19.55-19.55-19.55Z"/><g><polygon class="cls-2" points="192.05 0 172.35 -20.51 177.94 -26.3 203.2 0 177.94 26.3 172.35 20.51 192.05 0"/><polygon class="cls-2" points="216.5 0 196.8 -20.51 202.39 -26.3 227.65 0 202.39 26.3 196.8 20.51 216.5 0"/></g></g><g><path class="cls-2" d="M-27.85,0C-27.85-15.38-15.38-27.85,0-27.85S27.85-15.38,27.85,0,15.38,27.85,0,27.85-27.85,15.38-27.85,0ZM0-19.55C-10.8-19.55-19.55-10.8-19.55,0S-10.8,19.55,0,19.55,19.55,10.8,19.55,0,10.8-19.55,0-19.55Z"/><polygon class="cls-2" points="130.28 -21.56 124.19 -27.64 102.64 -6.09 81.08 -27.64 75 -21.56 96.55 0 75 21.55 81.08 27.64 102.64 6.08 124.19 27.64 130.28 21.55 108.72 0 130.28 -21.56"/></g></svg>