<?xml version="1.0" encoding="UTF-8"?><svg id="Layer_1" xmlns="http://www.w3.org/2000/svg" viewBox="0 0 200 200"><defs><style>.cls-1{fill:none;}.cls-2{fill:#38c6a1;}</style></defs><rect class="cls-1" y=".45" width="200" height="200"/><g><polygon class="cls-2" points="149.74 203.81 120.06 232.33 111.69 224.23 149.74 187.67 187.8 224.23 179.43 232.33 149.74 203.81"/><polygon class="cls-2" points="149.74 168.42 120.06 196.94 111.69 188.84 149.74 152.29 187.8 188.84 179.43 196.94 149.74 168.42"/></g><g><g><polygon class="cls-2" points="50 138.95 79.69 110.43 88.06 118.53 50 155.08 11.94 118.53 20.31 110.43 50 138.95"/><polygon class="cls-2" points="50 174.34 79.69 145.82 88.06 153.91 50 190.47 11.94 153.91 20.31 145.82 50 174.34"/></g><g><polygon class="cls-2" points="149.74 103.81 120.06 132.33 111.69 124.23 149.74 87.67 187.8 124.23 179.43 132.33 149.74 103.81"/><polygon class="cls-2" points="149.74 68.42 120.06 96.94 111.69 88.84 149.74 52.29 187.8 88.84 179.43 96.94 149.74 68.42"/></g></g><g><g><polygon class="cls-2" points="50 38.95 79.69 10.43 88.06 18.53 50 55.08 11.94 18.53 20.31 10.43 50 38.95"/><polygon class="cls-2" points="50 74.34 79.69 45.82 88.06 53.91 50 90.47 11.94 53.91 20.31 45.82 50 74.34"/></g><polygon class="cls-2" points="149.74 3.81 120.06 32.33 111.69 24.23 149.74 -12.33 187.8 24.23 179.43 32.33 149.74 3.81"/></g></svg>