<?xml version="1.0" encoding="UTF-8"?><svg id="Layer_1" xmlns="http://www.w3.org/2000/svg" xmlns:xlink="http://www.w3.org/1999/xlink" viewBox="0 0 150 200"><defs><style>.cls-1,.cls-2{fill:none;}.cls-3{fill:url(#Pattern-11-outline);}.cls-2{stroke:#38c6a1;stroke-miterlimit:10;}</style><pattern id="Pattern-11-outline" x="0" y="0" width="150" height="100" patternTransform="translate(3900.3 349.95)" patternUnits="userSpaceOnUse" viewBox="0 0 150 100"><g><rect class="cls-1" width="150" height="100"/><polygon class="cls-2" points="125.27 100 144.98 120.51 139.39 126.3 114.13 100 139.39 73.7 144.98 79.49 125.27 100"/><polygon class="cls-2" points="24.73 100 5.02 79.49 10.61 73.7 35.87 100 10.61 126.3 5.02 120.51 24.73 100"/><polygon class="cls-2" points="125.27 0 144.98 20.51 139.39 26.3 114.13 0 139.39 -26.3 144.98 -20.51 125.27 0"/><g><polygon class="cls-2" points="50.27 50 69.98 70.51 64.39 76.3 39.13 50 64.39 23.7 69.98 29.49 50.27 50"/><polygon class="cls-2" points="99.73 50 80.02 29.49 85.61 23.7 110.87 50 85.61 76.3 80.02 70.51 99.73 50"/></g><polygon class="cls-2" points="24.73 0 5.02 -20.51 10.61 -26.3 35.87 0 10.61 26.3 5.02 20.51 24.73 0"/></g></pattern></defs><rect class="cls-3" x="0" y="0" width="150" height="200"/></svg>