<?xml version="1.0" encoding="UTF-8"?><svg id="Layer_1" xmlns="http://www.w3.org/2000/svg" viewBox="0 0 200 200"><defs><style>.cls-1,.cls-2,.cls-3{fill:none;}.cls-2{stroke-width:1.4px;}.cls-2,.cls-3{stroke:#38c6a1;stroke-miterlimit:10;}.cls-3{stroke-width:1.32px;}</style></defs><rect class="cls-1" x=".66" y="0" width="200" height="200"/><g><polygon class="cls-2" points="116.46 200 143.99 228.65 136.17 236.73 100.89 200 136.17 163.27 143.99 171.35 116.46 200"/><polygon class="cls-2" points="185.54 200 158.01 171.35 165.83 163.27 201.11 200 165.83 236.73 158.01 228.65 185.54 200"/></g><g><path class="cls-3" d="M13.68,200c0-20.29,16.44-36.73,36.73-36.73s36.73,16.45,36.73,36.73-16.44,36.73-36.73,36.73-36.73-16.44-36.73-36.73Zm36.73-25.79c-14.24,0-25.79,11.55-25.79,25.79s11.55,25.79,25.79,25.79,25.79-11.55,25.79-25.79-11.55-25.79-25.79-25.79Z"/><polygon class="cls-2" points="-14.46 200 -41.99 171.35 -34.17 163.27 1.11 200 -34.17 236.73 -41.99 228.65 -14.46 200"/></g><polygon class="cls-2" points="216.46 100 243.99 128.65 236.17 136.73 200.89 100 236.17 63.27 243.99 71.35 216.46 100"/><g><path class="cls-3" d="M113.68,100c0-20.29,16.44-36.73,36.73-36.73s36.73,16.45,36.73,36.73-16.44,36.73-36.73,36.73-36.73-16.44-36.73-36.73Zm36.73-25.79c-14.24,0-25.79,11.55-25.79,25.79s11.55,25.79,25.79,25.79,25.79-11.55,25.79-25.79-11.55-25.79-25.79-25.79Z"/><g><polygon class="cls-2" points="16.46 100 43.99 128.65 36.17 136.73 .89 100 36.17 63.27 43.99 71.35 16.46 100"/><polygon class="cls-2" points="85.54 100 58.01 71.35 65.83 63.27 101.11 100 65.83 136.73 58.01 128.65 85.54 100"/></g></g><g><polygon class="cls-2" points="116.46 0 143.99 28.65 136.17 36.73 100.89 0 136.17 -36.73 143.99 -28.65 116.46 0"/><polygon class="cls-2" points="185.54 0 158.01 -28.65 165.83 -36.73 201.11 0 165.83 36.73 158.01 28.65 185.54 0"/></g><g><path class="cls-3" d="M13.68,0c0-20.29,16.44-36.73,36.73-36.73S87.14-20.29,87.14,0s-16.44,36.73-36.73,36.73S13.68,20.29,13.68,0ZM50.41-25.79C36.16-25.79,24.62-14.24,24.62,0s11.55,25.79,25.79,25.79S76.2,14.24,76.2,0s-11.55-25.79-25.79-25.79Z"/><polygon class="cls-2" points="-14.46 0 -41.99 -28.65 -34.17 -36.73 1.11 0 -34.17 36.73 -41.99 28.65 -14.46 0"/></g></svg>