<?xml version="1.0" encoding="UTF-8"?><svg id="Layer_1" xmlns="http://www.w3.org/2000/svg" viewBox="0 0 300 200"><defs><style>.cls-1{fill:none;}.cls-2{fill:#38c6a1;}</style></defs><rect class="cls-1" x="0" y="0" width="300" height="200"/><g><path class="cls-2" d="M260,200c0-22.09,17.91-40,40-40s40,17.91,40,40-17.91,40-40,40-40-17.91-40-40Zm40-28.09c-15.51,0-28.09,12.57-28.09,28.09s12.57,28.09,28.09,28.09,28.09-12.57,28.09-28.09-12.57-28.09-28.09-28.09Z"/><g><polygon class="cls-2" points="190.91 200 160.94 168.8 169.45 160 207.87 200 169.45 240 160.94 231.2 190.91 200"/><polygon class="cls-2" points="228.1 200 198.13 168.8 206.64 160 245.06 200 206.64 240 198.13 231.2 228.1 200"/></g></g><g><path class="cls-2" d="M-40,200c0-22.09,17.91-40,40-40s40,17.91,40,40S22.09,240,0,240s-40-17.91-40-40ZM0,171.92c-15.51,0-28.09,12.57-28.09,28.09s12.57,28.09,28.09,28.09,28.09-12.57,28.09-28.09-12.57-28.09-28.09-28.09Z"/><polygon class="cls-2" points="142.64 168.8 133.83 160 102.64 191.19 71.44 160 62.64 168.8 93.83 200 62.64 231.19 71.44 240 102.64 208.8 133.83 240 142.64 231.19 111.44 200 142.64 168.8"/></g><g><path class="cls-2" d="M110,100c0-22.09,17.91-40,40-40s40,17.91,40,40-17.91,40-40,40-40-17.91-40-40Zm40-28.09c-15.51,0-28.09,12.57-28.09,28.09s12.57,28.09,28.09,28.09,28.09-12.57,28.09-28.09-12.57-28.09-28.09-28.09Z"/><g><polygon class="cls-2" points="40.91 100 10.94 68.8 19.45 60 57.87 100 19.45 140 10.94 131.2 40.91 100"/><polygon class="cls-2" points="78.1 100 48.13 68.8 56.64 60 95.06 100 56.64 140 48.13 131.2 78.1 100"/></g><polygon class="cls-2" points="292.64 68.8 283.83 60 252.64 91.19 221.44 60 212.64 68.8 243.83 100 212.64 131.19 221.44 140 252.64 108.8 283.83 140 292.64 131.19 261.44 100 292.64 68.8"/></g><g><path class="cls-2" d="M260,0c0-22.09,17.91-40,40-40S340-22.09,340,0s-17.91,40-40,40S260,22.09,260,0Zm40-28.09c-15.51,0-28.09,12.57-28.09,28.09s12.57,28.09,28.09,28.09S328.09,15.51,328.09,0s-12.57-28.09-28.09-28.09Z"/><g><polygon class="cls-2" points="190.91 0 160.94 -31.2 169.45 -40 207.87 0 169.45 40 160.94 31.2 190.91 0"/><polygon class="cls-2" points="228.1 0 198.13 -31.2 206.64 -40 245.06 0 206.64 40 198.13 31.2 228.1 0"/></g></g><g><path class="cls-2" d="M-40,0C-40-22.09-22.09-40,0-40S40-22.09,40,0,22.09,40,0,40-40,22.09-40,0ZM0-28.08C-15.51-28.08-28.09-15.51-28.09,0S-15.51,28.09,0,28.09,28.09,15.51,28.09,0,15.51-28.08,0-28.08Z"/><polygon class="cls-2" points="142.64 -31.2 133.83 -40 102.64 -8.81 71.44 -40 62.64 -31.2 93.83 0 62.64 31.19 71.44 40 102.64 8.8 133.83 40 142.64 31.19 111.44 0 142.64 -31.2"/></g></svg>