<?xml version="1.0" encoding="UTF-8"?><svg id="Layer_1" xmlns="http://www.w3.org/2000/svg" viewBox="0 0 200 200"><defs><style>.cls-1{fill:none;}.cls-2{fill:#38c6a1;}</style></defs><rect class="cls-1" y="-.55" width="200" height="200"/><g><polygon class="cls-2" points="149.74 179.81 179.43 151.29 187.8 159.38 149.74 195.94 111.69 159.38 120.05 151.29 149.74 179.81"/><polygon class="cls-2" points="149.74 215.19 179.43 186.67 187.8 194.77 149.74 231.33 111.69 194.77 120.05 186.67 149.74 215.19"/></g><g><g><polygon class="cls-2" points="50 137.95 79.69 109.43 88.05 117.53 50 154.08 11.94 117.53 20.31 109.43 50 137.95"/><polygon class="cls-2" points="50 173.34 79.69 144.82 88.05 152.91 50 189.47 11.94 152.91 20.31 144.82 50 173.34"/></g><g><polygon class="cls-2" points="149.74 79.81 179.43 51.29 187.8 59.38 149.74 95.94 111.69 59.38 120.05 51.29 149.74 79.81"/><polygon class="cls-2" points="149.74 115.19 179.43 86.67 187.8 94.77 149.74 131.33 111.69 94.77 120.05 86.67 149.74 115.19"/></g></g><g><g><polygon class="cls-2" points="50 37.95 79.69 9.43 88.05 17.53 50 54.08 11.94 17.53 20.31 9.43 50 37.95"/><polygon class="cls-2" points="50 73.34 79.69 44.82 88.05 52.91 50 89.47 11.94 52.91 20.31 44.82 50 73.34"/></g><polygon class="cls-2" points="149.74 15.19 179.43 -13.33 187.8 -5.23 149.74 31.33 111.69 -5.23 120.05 -13.33 149.74 15.19"/></g></svg>